<svg width="45" height="45" viewBox="0 0 45 45" fill="none" xmlns="http://www.w3.org/2000/svg">
	<path d="M11.2932 0.54273C13.7652 -0.206657 16.4201 -0.179402 18.8752 0.620816C20.7796 1.24155 22.4918 2.30413 23.8637 3.70932C25.2357 2.30413 26.9478 1.24155 28.8523 0.620816C31.3073 -0.179402 33.9623 -0.206657 36.4342 0.54273C38.9066 1.29224 41.0756 2.78249 42.6197 4.80729C44.1646 6.83301 45.0016 9.28644 45.0001 11.8111C44.9998 14.8128 43.5974 18.0015 41.6971 20.9851C39.7763 24.001 37.2375 26.9746 34.7334 29.5811C34.2117 30.1242 33.3484 30.1415 32.8054 29.6197C32.2623 29.098 32.245 28.2347 32.7667 27.6916C35.2058 25.1529 37.6103 22.325 39.3968 19.52C41.2038 16.6829 42.2728 14.0307 42.2728 11.8095C42.274 9.89227 41.639 8.01869 40.4511 6.46114C39.2626 4.90265 37.5805 3.74006 35.643 3.1527C33.7051 2.56522 31.6214 2.58673 29.6974 3.21382C27.774 3.84077 26.1188 5.03734 24.9657 6.61928C24.709 6.97143 24.2995 7.1797 23.8637 7.1797C23.428 7.1797 23.0184 6.97143 22.7617 6.61928C21.6087 5.03734 19.9535 3.84077 18.03 3.21382C16.1061 2.58673 14.0223 2.56522 12.0844 3.1527C10.147 3.74006 8.46485 4.90265 7.2763 6.46114C6.09007 8.01657 5.4552 9.88716 5.45463 11.8016L5.45454 11.7938L4.091 11.8103L5.45463 11.8095L5.45463 11.8016C5.46046 12.2483 5.50341 12.694 5.58311 13.1344C5.71723 13.8755 5.22519 14.585 4.48411 14.7191C3.74303 14.8532 3.03355 14.3612 2.89943 13.6201C2.79225 13.0279 2.73473 12.4281 2.72746 11.8268L2.72736 11.8111C2.72582 9.28644 3.56281 6.83301 5.1077 4.80729C6.65189 2.78249 8.82086 1.29224 11.2932 0.54273Z" fill="url(#paint0_linear_26_12484)" />
	<path fill-rule="evenodd" clip-rule="evenodd" d="M28.1368 13.9451C28.4531 14.2041 28.6364 14.5914 28.6364 15.0002L28.6355 21.3831L29.7352 21.1632C30.4737 21.0155 31.1921 21.4944 31.3398 22.2329C31.4875 22.9714 31.0086 23.6898 30.2701 23.8375L28.6351 24.1645L28.6335 35.9701C28.6354 36.0253 28.6364 36.0807 28.6364 36.1364C28.6364 38.7723 26.4995 40.9091 23.8636 40.9091C21.2277 40.9091 19.0909 38.7723 19.0909 36.1364C19.0909 33.5005 21.2277 31.3636 23.8636 31.3636C24.5947 31.3636 25.2874 31.528 25.9068 31.8218L25.9078 24.71L9.54545 27.9824V40.9091C9.54545 41.3339 9.35124 41.7133 9.04677 41.9634C8.30083 43.6935 6.76631 45 4.77273 45C1.91459 45 0 42.3146 0 39.5455C0 36.7763 1.91459 34.0909 4.77273 34.0909C5.52601 34.0909 6.21376 34.2775 6.81818 34.6029V28.5279L2.99737 29.292C2.25888 29.4397 1.54048 28.9608 1.39278 28.2223C1.24508 27.4838 1.72401 26.7654 2.46251 26.6177L6.81818 25.7466V18.8384C6.81818 18.1889 7.27627 17.6295 7.91303 17.5015L27.0039 13.6631C27.4047 13.5825 27.8205 13.686 28.1368 13.9451ZM9.54545 25.2011L25.9082 21.9286L25.9089 16.6652L9.54545 19.9552V25.2011ZM25.9062 36.1109L25.9062 36.0275C25.8496 34.9484 24.9568 34.0909 23.8636 34.0909C22.734 34.0909 21.8182 35.0067 21.8182 36.1364C21.8182 37.266 22.734 38.1818 23.8636 38.1818C24.9757 38.1818 25.8804 37.2944 25.9084 36.1891C25.907 36.1633 25.9062 36.1372 25.9062 36.1109ZM6.81818 39.5455C6.81818 37.7959 5.68017 36.8182 4.77273 36.8182C3.86529 36.8182 2.72727 37.7959 2.72727 39.5455C2.72727 41.295 3.86529 42.2727 4.77273 42.2727C5.68017 42.2727 6.81818 41.295 6.81818 39.5455Z" fill="url(#paint1_linear_26_12484)" />
	<defs>
		<linearGradient id="paint0_linear_26_12484" x1="42.4063" y1="22.5" x2="-1.12655" y2="22.515" gradientUnits="userSpaceOnUse">
			<stop stop-color="#2C3FEF" />
			<stop offset="0.40625" stop-color="#EF2CDC" />
			<stop offset="1" stop-color="#FFA05B" />
		</linearGradient>
		<linearGradient id="paint1_linear_26_12484" x1="42.4063" y1="22.5" x2="-1.12655" y2="22.515" gradientUnits="userSpaceOnUse">
			<stop stop-color="#2C3FEF" />
			<stop offset="0.40625" stop-color="#EF2CDC" />
			<stop offset="1" stop-color="#FFA05B" />
		</linearGradient>
	</defs>
</svg>
