<svg width="160" height="24" viewBox="0 0 160 24" fill="none" xmlns="http://www.w3.org/2000/svg">
	<path d="M66.992 19.0616C66.9925 19.062 66.9922 19.0627 66.9916 19.0627H58.7053C57.2038 19.0627 55.9873 20.0991 55.9873 21.3783V21.6472C55.9873 22.9264 57.2038 23.9628 58.7053 23.9628H69.8377C69.8551 23.9628 69.8691 23.9487 69.8691 23.9314C69.8691 23.914 69.8832 23.8999 69.9006 23.8999H72.745C74.2465 23.8999 75.463 22.8636 75.463 21.5843V16.6127C75.463 15.3334 74.2465 14.297 72.745 14.297H72.5872C71.0857 14.297 69.8691 13.2606 69.8691 11.9814V11.847C69.8691 10.5678 68.6526 9.53136 67.1511 9.53136H64.4544C62.9529 9.53136 61.7364 8.49496 61.7364 7.21573C61.7364 5.9365 62.9529 4.90011 64.4544 4.90011H72.7424C74.244 4.90011 75.4605 3.86371 75.4605 2.58448V2.31563C75.4605 1.03639 74.244 0 72.7424 0H64.2228C62.7213 0 61.5048 1.03639 61.5048 2.31563V2.45005C61.5048 3.72929 60.2883 4.76568 58.7868 4.76568H58.7028C57.2012 4.76568 55.9847 5.80207 55.9847 7.0813V12.1137C55.9847 13.3929 57.2012 14.4293 58.7028 14.4293H66.9908C68.4923 14.4293 69.7088 15.4657 69.7088 16.7449C69.7088 18.0237 68.4932 19.0598 66.9924 19.0605C66.9919 19.0605 66.9916 19.0613 66.992 19.0616Z" fill="white" />
	<path d="M19.7351 0.0382615C19.7343 0.0389613 19.7333 0.0393456 19.7322 0.0393456H19.2605C17.8022 0.0393456 16.6213 1.04539 16.6213 2.28776V2.55661C16.6213 3.79899 15.4405 4.80502 13.9822 4.80502C12.5239 4.80502 11.343 3.79899 11.343 2.55661V2.28776C11.3456 1.04539 10.1647 0.0393456 8.70641 0.0393456H8.23305C6.77477 0.0393456 5.59389 1.04539 5.59389 2.28776V2.55661C5.59389 3.79899 4.41301 4.80502 2.95473 4.80502H2.63916C1.18088 4.80502 0 5.81106 0 7.05344V16.2611C0 17.5035 1.18088 18.5096 2.63916 18.5096H3.11252C4.5708 18.5096 5.75168 17.5035 5.75168 16.2611V7.1857C5.75168 5.94332 6.93255 4.93728 8.39083 4.93728H8.54862C10.0069 4.93728 11.1878 5.94332 11.1878 7.1857V21.7494C11.1878 22.9918 12.3687 23.9978 13.8269 23.9978H14.3003C15.7586 23.9978 16.9395 22.9918 16.9395 21.7494V7.1857C16.9395 5.94332 18.1203 4.93728 19.5786 4.93728C21.0369 4.93728 22.2178 5.94332 22.2178 7.1857V19.0053C22.2178 20.2477 23.3986 21.2537 24.8569 21.2537H25.3303C26.7886 21.2537 27.9694 20.2477 27.9694 19.0053V7.05127C27.9694 5.8089 26.7886 4.80286 25.3303 4.80286H25.0147C23.5564 4.80286 22.3756 3.79682 22.3756 2.55445V2.28559C22.3756 1.04369 21.1956 0.0379509 19.7381 0.0371778C19.737 0.0371773 19.736 0.0375617 19.7351 0.0382615Z" fill="white" />
	<path d="M41.7887 0.0393456H44.7418C44.7424 0.0393456 44.7426 0.0386323 44.7422 0.0382615C44.7418 0.0378906 44.742 0.0371774 44.7426 0.0371774H47.8535C49.3117 0.0371774 50.4926 1.04322 50.4926 2.28559V2.68887C50.4926 3.93124 49.3117 4.93728 47.8535 4.93728H41.9465C40.4883 4.93728 39.3074 5.94332 39.3074 7.1857V7.32012C39.3074 8.5625 40.4883 9.56853 41.9465 9.56853H47.8535C49.3117 9.56853 50.4926 10.5746 50.4926 11.8169V12.2202C50.4926 13.4626 49.3117 14.4686 47.8535 14.4686H41.9465C40.4883 14.4686 39.3074 15.4747 39.3074 16.7171V16.8515C39.3074 18.0939 40.4883 19.0999 41.9465 19.0999H47.8535C49.3117 19.0999 50.4926 20.1059 50.4926 21.3483V21.7516C50.4926 22.994 49.3117 24 47.8535 24H41.7887C40.3305 24 39.1496 22.994 39.1496 21.7516V21.4827C39.1496 20.2404 37.9687 19.2343 36.5104 19.2343H36.1949C34.7366 19.2343 33.5557 18.2283 33.5557 16.9859V7.05344C33.5557 5.81106 34.7366 4.80502 36.1949 4.80502H36.5104C37.9687 4.80502 39.1496 3.79899 39.1496 2.55661V2.28776C39.1496 1.04539 40.3305 0.0393456 41.7887 0.0393456Z" fill="white" />
	<path d="M81.174 21.7494C81.174 22.9918 82.3549 23.9978 83.8131 23.9978H84.2865C85.7448 23.9978 86.9257 22.9918 86.9257 21.7494V5.03187C86.9257 3.78949 85.7448 2.78346 84.2865 2.78346H83.8131C82.3549 2.78346 81.174 3.78949 81.174 5.03187V21.7494Z" fill="white" />
	<path fill-rule="evenodd" clip-rule="evenodd" d="M95.1562 0.0393326H106.815C108.273 0.0393326 109.454 1.04537 109.454 2.28774V7.45454C109.454 8.69691 108.273 9.70295 106.815 9.70295H106.499C105.041 9.70295 103.86 10.709 103.86 11.9514V12.0858C103.86 13.3282 105.041 14.3342 106.499 14.3342H106.815C108.273 14.3342 109.454 15.3402 109.454 16.5826V21.7494C109.454 22.9918 108.273 23.9978 106.815 23.9978H95.1562C93.6979 23.9978 92.517 22.9918 92.517 21.7494V2.28774C92.517 1.04537 93.6979 0.0393326 95.1562 0.0393326ZM103.702 7.32011V7.18568C103.702 5.94331 102.521 4.93727 101.063 4.93727H100.905C99.447 4.93727 98.2662 5.94331 98.2662 7.18568V7.32011C98.2662 8.56248 99.447 9.56852 100.905 9.56852H101.063C102.521 9.56852 103.702 8.56248 103.702 7.32011ZM98.2662 16.7149V16.8493C98.2662 18.0917 99.447 19.0977 100.905 19.0977H101.063C102.521 19.0977 103.702 18.0917 103.702 16.8493V16.7149C103.702 15.4725 102.521 14.4665 101.063 14.4665H100.905C99.447 14.4665 98.2662 15.4725 98.2662 16.7149Z" fill="white" />
	<path fill-rule="evenodd" clip-rule="evenodd" d="M131.929 2.28774C131.929 1.04537 130.748 0.0393326 129.29 0.0393326H123.225C121.767 0.0393326 120.586 1.04537 120.586 2.28774V2.5566C120.586 3.79897 119.405 4.80501 117.947 4.80501H117.631C116.173 4.80501 114.992 5.81105 114.992 7.05342V16.9859C114.992 18.2283 116.173 19.2343 117.631 19.2343H117.947C119.405 19.2343 120.586 20.2403 120.586 21.4827V21.7516C120.586 22.9939 121.767 24 123.225 24H129.29C130.748 24 131.929 22.9939 131.929 21.7516V21.4827C131.929 20.2403 133.11 19.2343 134.568 19.2343H134.883C136.342 19.2343 137.523 18.2283 137.523 16.9859V7.05126C137.523 5.80888 136.342 4.80284 134.883 4.80284H134.568C133.11 4.80284 131.929 3.7968 131.929 2.55443V2.28774ZM131.771 16.8493C131.771 18.0917 130.59 19.0977 129.132 19.0977H123.383C121.924 19.0977 120.744 18.0917 120.744 16.8493V7.18568C120.744 5.94331 121.924 4.93727 123.383 4.93727H129.132C130.59 4.93727 131.771 5.94331 131.771 7.18568V16.8493Z" fill="white" />
	<path d="M145.7 0.0390762H154.402C154.403 0.0390762 154.404 0.0386916 154.405 0.0379921C154.406 0.0372925 154.407 0.036908 154.408 0.036908H157.361C158.819 0.036908 160 1.04295 160 2.28532V2.6886C160 3.93098 158.819 4.93702 157.361 4.93702H157.045C155.587 4.93702 154.406 5.94305 154.406 7.18543V17.6329C154.406 18.8753 153.225 19.8814 151.767 19.8814H151.294C149.835 19.8814 148.654 18.8753 148.654 17.6329V7.1876C148.654 5.94522 147.474 4.93918 146.015 4.93918H145.7C144.241 4.93918 143.061 3.93314 143.061 2.69077V2.28749C143.061 1.04512 144.241 0.0390762 145.7 0.0390762Z" fill="white" />
</svg>
