<svg width="22" height="28" viewBox="0 0 22 28" fill="none" xmlns="http://www.w3.org/2000/svg">
	<path d="M11.6799 19.2123C11.4541 19.2377 11.2272 19.2502 11 19.2499V19.2499C9.37555 19.2499 7.81763 18.6046 6.66897 17.4559C5.52031 16.3073 4.875 14.7494 4.875 13.1249V11.4624" stroke="currentColor" stroke-width="2" stroke-linecap="round" stroke-linejoin="round" />
	<path d="M4.875 7.875C4.875 6.25055 5.52031 4.69263 6.66897 3.54397C7.81763 2.39531 9.37555 1.75 11 1.75V1.75C12.6245 1.75 14.1824 2.39531 15.331 3.54397C16.4797 4.69263 17.125 6.25055 17.125 7.875V13.125C17.1256 14.0283 16.9261 14.9205 16.5407 15.7375C16.1554 16.5545 15.5938 17.2759 14.8964 17.85" stroke="currentColor" stroke-width="2" stroke-linecap="round" stroke-linejoin="round" />
	<path d="M20.625 13.125C20.625 15.6777 19.6109 18.1259 17.8059 19.9309C16.0009 21.7359 13.5527 22.75 11 22.75V22.75C8.44729 22.75 5.99913 21.7359 4.1941 19.9309C2.38906 18.1259 1.375 15.6777 1.375 13.125" stroke="currentColor" stroke-width="2" stroke-linecap="round" stroke-linejoin="round" />
	<path d="M5.75 26.25H16.25" stroke="currentColor" stroke-width="2" stroke-linecap="round" stroke-linejoin="round" />
	<path d="M11 26.25V22.75" stroke="currentColor" stroke-width="2" stroke-linecap="round" stroke-linejoin="round" />
	<path d="M4.875 11.4625V7.875" stroke="currentColor" stroke-width="2" stroke-linecap="round" stroke-linejoin="round" />
	<path d="M14.8962 17.8501C13.9796 18.6075 12.8616 19.0804 11.6797 19.2107" stroke="currentColor" stroke-width="2" stroke-linecap="round" stroke-linejoin="round" />
</svg>
